<svg xmlns="http://www.w3.org/2000/svg" viewBox="0 0 32 32" width="32" height="32">
  <defs>
    <linearGradient id="wineGradient" x1="0%" y1="0%" x2="100%" y2="100%">
      <stop offset="0%" style="stop-color:#722F37;stop-opacity:1" />
      <stop offset="50%" style="stop-color:#A0222D;stop-opacity:1" />
      <stop offset="100%" style="stop-color:#D32F2F;stop-opacity:1" />
    </linearGradient>
    <linearGradient id="stemGradient" x1="0%" y1="0%" x2="100%" y2="100%">
      <stop offset="0%" style="stop-color:#8D6E63;stop-opacity:1" />
      <stop offset="100%" style="stop-color:#5D4037;stop-opacity:1" />
    </linearGradient>
  </defs>
  
  <!-- Wine glass bowl -->
  <path d="M8 4 L24 4 L22 14 C22 18 19 21 16 21 C13 21 10 18 10 14 L8 4 Z" 
        fill="url(#wineGradient)" 
        stroke="#4A4A4A" 
        stroke-width="0.5"/>
  
  <!-- Wine inside glass -->
  <path d="M9.5 6 L22.5 6 L21 13 C21 16 19 18 16 18 C13 18 11 16 11 13 L9.5 6 Z" 
        fill="#8B0000" 
        opacity="0.8"/>
  
  <!-- Wine glass stem -->
  <rect x="15" y="21" width="2" height="6" 
        fill="url(#stemGradient)" 
        stroke="#4A4A4A" 
        stroke-width="0.5"/>
  
  <!-- Wine glass base -->
  <ellipse cx="16" cy="28" rx="6" ry="1.5" 
           fill="url(#stemGradient)" 
           stroke="#4A4A4A" 
           stroke-width="0.5"/>
  
  <!-- Highlight on glass -->
  <path d="M10 8 L11 8 L10.5 12 C10.5 13 11 14 12 14" 
        fill="none" 
        stroke="#FFFFFF" 
        stroke-width="1" 
        opacity="0.6"/>
</svg>
